<svg width="62" height="62" viewBox="0 0 62 62" fill="none" xmlns="http://www.w3.org/2000/svg">
<path d="M53.6839 4.62451H8.4962C8.0684 4.62451 7.72119 4.97172 7.72119 5.39952V32.3567C7.72119 32.7845 8.0684 33.1317 8.4962 33.1317H53.6839C54.1117 33.1317 54.4589 32.7845 54.4589 32.3567V5.39952C54.4589 4.97172 54.1117 4.62451 53.6839 4.62451ZM52.9089 31.5817H9.27121V6.17453H52.9089V31.5817Z" fill="#0378F5"/>
<path d="M61.968 59.024L58.3758 36.7851V4.08895C58.3758 1.83445 56.5259 0 54.2512 0H7.9289C5.65424 0 3.8043 1.83445 3.8043 4.08895V36.7827L0.0362065 59.0038C-0.0901201 59.7463 0.117589 60.5042 0.60507 61.0816C1.09798 61.6652 1.82106 62 2.58909 62H59.4112C60.1746 62 60.8954 61.6683 61.3883 61.0894C61.8765 60.5174 62.0873 59.7649 61.968 59.024ZM5.35432 4.08895C5.35432 2.68851 6.50908 1.55002 7.9289 1.55002H54.2512C55.6711 1.55002 56.8258 2.68928 56.8258 4.08895V36.0728H5.35432V4.08895ZM60.2087 60.0849C60.0111 60.3175 59.7205 60.4508 59.412 60.4508H2.58985C2.27985 60.4508 1.98846 60.3167 1.79005 60.0819C1.59475 59.8509 1.51492 59.5603 1.56529 59.2634L5.23498 37.6228H56.9413L60.4381 59.2712C60.4854 59.5665 60.404 59.8555 60.2087 60.0849Z" fill="#0378F5"/>
<path d="M53.6838 40.9469H8.49609C8.10781 40.9469 7.77921 41.2344 7.72806 41.6196L5.97577 54.7948C5.94632 55.0164 6.01373 55.2396 6.16099 55.4078C6.30824 55.576 6.5206 55.6721 6.7438 55.6721H55.3044C55.5268 55.6721 55.7376 55.5768 55.8848 55.4109C56.0321 55.2443 56.1003 55.0226 56.0739 54.8025L54.4526 41.6274C54.4053 41.2383 54.0752 40.9469 53.6838 40.9469ZM31.7999 42.4969H41.4495L41.9416 47.5345H31.7999V42.4969ZM18.3395 54.1221H7.62886L8.29924 49.0845H18.8324L18.3395 54.1221ZM18.9835 47.5345H8.50463L9.175 42.4969H19.4764L18.9835 47.5345ZM30.2498 54.1221H19.8973L20.3894 49.0845H30.2498V54.1221ZM30.2498 47.5345H20.5413L21.0334 42.4969H30.2498V47.5345ZM31.7999 54.1221V49.0845H42.0935L42.5857 54.1221H31.7999ZM43.0065 42.4969H52.9987L53.6187 47.5345H43.4994L43.0065 42.4969ZM44.1427 54.1221L43.6505 49.0845H53.8094L54.4294 54.1221H44.1427Z" fill="#0378F5"/>
</svg>
