<svg width="948" height="559" viewBox="0 0 948 559" fill="none" xmlns="http://www.w3.org/2000/svg">
<g clip-path="url(#clip0)">
<rect width="948" height="559" fill="white"/>
<rect width="948" height="559" rx="3" fill="#0378F5"/>
<path d="M48.3086 473.709V499.588H16.3262V597H-14.6797V499.588H-33.4785V473.709H-14.6797V462.723C-14.6797 453.283 -12.7266 445.226 -8.82031 438.553C-4.7513 431.717 0.538411 426.508 7.04883 422.928C13.5592 419.347 20.7207 417.557 28.5332 417.557C33.7415 417.557 38.2988 418.126 42.2051 419.266C46.1113 420.405 49.5293 421.951 52.459 423.904V449.783C47.0879 446.528 40.903 444.982 33.9043 445.145C29.0215 445.307 24.8711 446.935 21.4531 450.027C18.0352 452.957 16.3262 457.84 16.3262 464.676V473.709H48.3086ZM124.822 409.5C130.682 409.5 135.727 411.616 139.959 415.848C144.191 419.917 146.307 424.799 146.307 430.496C146.307 436.03 144.191 440.913 139.959 445.145C135.727 449.376 130.682 451.492 124.822 451.492C118.963 451.492 113.917 449.376 109.686 445.145C105.617 440.913 103.582 436.03 103.582 430.496C103.582 424.799 105.617 419.917 109.686 415.848C113.917 411.616 118.963 409.5 124.822 409.5ZM142.889 473.709V597H111.883V500.076H92.1074V473.709H142.889ZM324.139 421.219V597H293.133V576.248C289.552 582.921 284.344 588.699 277.508 593.582C270.672 598.302 262.697 600.662 253.582 600.662C243.654 600.662 234.458 598.139 225.994 593.094C217.693 588.048 211.02 580.724 205.975 571.121C200.929 561.518 198.406 549.881 198.406 536.209C198.406 522.537 200.929 510.818 205.975 501.053C211.183 491.287 218.1 483.8 226.727 478.592C235.516 473.221 245.2 470.535 255.779 470.535C262.452 470.535 269.207 472.081 276.043 475.174C282.879 478.266 288.576 482.417 293.133 487.625V421.219H324.139ZM262.127 501.053C255.617 501.053 250.001 502.762 245.281 506.18C240.724 509.435 237.143 513.748 234.539 519.119C231.935 524.327 230.633 530.024 230.633 536.209C230.633 545.486 233.4 553.38 238.934 559.891C244.63 566.401 252.117 569.656 261.395 569.656C266.928 569.656 272.055 568.191 276.775 565.262C281.658 562.332 285.564 558.263 288.494 553.055C291.587 547.684 293.133 541.255 293.133 533.768V516.189C288.738 511.469 283.937 507.807 278.729 505.203C273.683 502.436 268.149 501.053 262.127 501.053ZM496.111 473.709V547.195C496.111 558.1 493.67 567.54 488.787 575.516C483.904 583.328 477.231 589.35 468.768 593.582C460.467 597.814 451.027 599.93 440.447 599.93C429.705 599.93 420.102 597.814 411.639 593.582C403.338 589.35 396.746 583.328 391.863 575.516C387.143 567.54 384.783 558.1 384.783 547.195V473.709H416.033L416.277 541.58C416.277 551.183 418.475 558.344 422.869 563.064C427.264 567.785 433.123 570.145 440.447 570.145C447.609 570.145 453.387 567.785 457.781 563.064C462.339 558.344 464.617 551.183 464.617 541.58V473.709H496.111ZM610.467 470.535C622.511 470.535 632.846 473.139 641.473 478.348C650.262 483.556 656.935 490.799 661.492 500.076C666.212 509.191 668.572 519.77 668.572 531.814V544.998H579.217C580.844 553.299 584.913 559.972 591.424 565.018C597.934 570.063 605.91 572.586 615.35 572.586C624.301 572.586 632.439 570.796 639.764 567.215C647.088 563.634 652.947 559.972 657.342 556.229L657.098 585.037C653.191 588.455 647.332 591.954 639.52 595.535C631.87 598.953 623.406 600.662 614.129 600.662C601.922 600.662 590.773 597.895 580.682 592.361C570.753 586.827 562.778 579.259 556.756 569.656C550.896 560.053 547.967 549.067 547.967 536.697C547.967 524.653 550.652 513.667 556.023 503.738C561.395 493.81 568.8 485.835 578.24 479.812C587.68 473.628 598.423 470.535 610.467 470.535ZM609.734 497.635C602.085 497.635 595.656 499.995 590.447 504.715C585.239 509.435 581.658 515.783 579.705 523.758H638.787C638.136 514.969 634.881 508.458 629.021 504.227C623.162 499.832 616.733 497.635 609.734 497.635ZM761.688 470.535C769.337 470.535 776.417 471.674 782.928 473.953C789.438 476.232 794.484 478.836 798.064 481.766V509.109C794.158 506.505 789.357 503.982 783.66 501.541C778.126 499.1 772.348 497.879 766.326 497.879C760.467 497.879 755.828 499.181 752.41 501.785C748.992 504.389 747.283 507.482 747.283 511.062C747.283 513.667 748.26 516.108 750.213 518.387C752.166 520.503 755.91 522.374 761.443 524.002L775.359 528.641C794.077 534.174 803.436 544.998 803.436 561.111C803.436 568.761 801.238 575.597 796.844 581.619C792.612 587.479 786.834 592.117 779.51 595.535C772.348 598.953 764.373 600.662 755.584 600.662C747.283 600.662 739.227 599.36 731.414 596.756C723.602 594.152 717.661 591.303 713.592 588.211V561.111C716.684 563.227 720.428 565.262 724.822 567.215C729.217 569.168 733.774 570.796 738.494 572.098C743.214 573.237 747.527 573.807 751.434 573.807C757.618 573.807 762.339 572.749 765.594 570.633C769.012 568.354 770.721 565.18 770.721 561.111C770.721 558.019 769.337 555.577 766.57 553.787C763.803 551.997 759.734 550.206 754.363 548.416L739.227 543.045C729.786 539.952 723.276 535.558 719.695 529.861C716.115 524.165 714.324 517.41 714.324 509.598C714.324 501.785 716.277 495.031 720.184 489.334C724.253 483.475 729.868 478.917 737.029 475.662C744.191 472.244 752.41 470.535 761.688 470.535ZM899.48 437.82V473.709H933.66V499.588H899.48V552.811C899.48 558.344 900.701 562.739 903.143 565.994C905.747 569.087 909.572 570.633 914.617 570.633C919.012 570.633 922.755 570.145 925.848 569.168C929.103 568.191 932.114 566.808 934.881 565.018V589.676C931.788 592.768 927.882 595.372 923.162 597.488C918.605 599.604 912.827 600.662 905.828 600.662C894.76 600.662 885.727 597.163 878.729 590.164C871.893 583.003 868.475 573.237 868.475 560.867V499.588H846.258V483.719C854.07 480.952 861.232 475.743 867.742 468.094C874.415 460.444 879.705 450.353 883.611 437.82H899.48Z" fill="white" fill-opacity="0.3"/>
</g>
<defs>
<clipPath id="clip0">
<rect width="948" height="559" fill="white"/>
</clipPath>
</defs>
</svg>
