<svg width="52" height="62" viewBox="0 0 52 62" fill="none" xmlns="http://www.w3.org/2000/svg">
<path d="M50.9145 42.2033C50.5355 41.5949 49.9442 41.1718 49.2499 41.0106L19.511 34.111C18.8166 33.9506 18.099 34.0699 17.4914 34.4488C16.8831 34.8278 16.4599 35.4191 16.2987 36.1135L15.5323 39.418C15.199 40.8556 16.098 42.297 17.5348 42.6303L32.3136 46.0587H6.84327C5.36695 46.0587 4.1665 47.2592 4.1665 48.7355V52.1276C4.1665 53.6039 5.36695 54.8044 6.84327 54.8044H11.3381C11.1777 55.1477 11.0808 55.5274 11.0808 55.9312V59.3232C11.0808 60.7996 12.2813 62 13.7576 62H44.2861C45.7625 62 46.9629 60.7996 46.9629 59.3232V55.9312C46.9629 54.4556 45.7625 53.2544 44.2861 53.2544H39.7913C39.9525 52.9111 40.0486 52.5313 40.0486 52.1276V48.7355C40.0486 48.41 39.9819 48.1016 39.875 47.8125L47.2744 49.5291C47.4759 49.5756 47.679 49.5988 47.8813 49.5988C48.3757 49.5988 48.8624 49.4601 49.294 49.1912C49.9024 48.8122 50.3255 48.2209 50.4867 47.5265L51.2532 44.2221C51.4136 43.5285 51.2935 42.8109 50.9145 42.2033ZM6.84327 53.2544C6.22174 53.2544 5.71645 52.7491 5.71645 52.1276V48.7355C5.71645 48.114 6.22174 47.6087 6.84327 47.6087H37.3711C37.9926 47.6087 38.4979 48.114 38.4979 48.7355V52.1276C38.4979 52.7491 37.9926 53.2544 37.3711 53.2544H13.7568H6.84327ZM44.2861 54.8044C44.9077 54.8044 45.413 55.3096 45.413 55.9312V59.3232C45.413 59.9448 44.9077 60.45 44.2861 60.45H13.7576C13.1361 60.45 12.6308 59.9448 12.6308 59.3232V55.9312C12.6308 55.3096 13.1361 54.8044 13.7576 54.8044H37.3718H44.2861ZM49.7427 43.8726L48.9763 47.177C48.9089 47.4684 48.7298 47.7164 48.4733 47.8768C48.2168 48.0365 47.9154 48.0884 47.624 48.0202L17.8843 41.1206C17.2799 40.9803 16.9017 40.3735 17.0419 39.7683L17.8084 36.4638C17.9293 35.9438 18.3935 35.592 18.9065 35.592C18.9902 35.592 19.0762 35.6012 19.1615 35.6214L48.9004 42.521C49.191 42.5884 49.4397 42.7667 49.5994 43.0232C49.759 43.2797 49.8102 43.5812 49.7427 43.8726Z" fill="#0378F5"/>
<path d="M16.1685 8.34776L44.6899 19.2338C45.003 19.3532 45.3246 19.4098 45.6416 19.4098C46.7203 19.4098 47.7386 18.7534 48.1455 17.687L49.3552 14.5181C49.6094 13.8524 49.5885 13.1255 49.2956 12.4706C49.0026 11.8165 48.4749 11.3167 47.8084 11.0625L19.287 0.176447C17.9076 -0.350535 16.3584 0.343039 15.8322 1.72249L14.6224 4.8914C14.0962 6.27163 14.7898 7.82155 16.1685 8.34776ZM16.0701 5.44548L17.2798 2.27662C17.4511 1.82791 17.8804 1.55124 18.3338 1.55124C18.4671 1.55124 18.6027 1.57525 18.7345 1.62562L47.2558 12.5117C47.5348 12.6187 47.7565 12.8295 47.8805 13.1054C48.0045 13.3812 48.013 13.6866 47.9068 13.9663L46.6971 17.1352C46.4754 17.7156 45.8252 18.0078 45.2425 17.7862L16.7211 6.90012C16.1406 6.67848 15.8485 6.02594 16.0701 5.44548Z" fill="#0378F5"/>
<path d="M36.0419 24.0704L35.604 20.707C35.5118 20.0003 35.1483 19.3702 34.5803 18.9331C34.013 18.496 33.3109 18.3062 32.6033 18.3984L2.33127 22.343C0.867348 22.5337 -0.16802 23.8798 0.0226234 25.3437L0.461242 28.7071C0.637162 30.054 1.79033 31.0382 3.11398 31.0382C3.22868 31.0382 3.34493 31.0305 3.46195 31.0157L33.734 27.0711C35.1972 26.8797 36.2325 25.5336 36.0419 24.0704ZM3.26045 29.4782C2.64434 29.5596 2.07861 29.1225 1.99802 28.5064L1.5594 25.143C1.4788 24.5269 1.91511 23.9604 2.53121 23.8806L32.8032 19.9359C32.8521 19.9297 32.9001 19.9267 32.9489 19.9267C33.1954 19.9267 33.4341 20.008 33.6348 20.1622C33.8743 20.3467 34.0277 20.6117 34.0665 20.9078L34.5043 24.2711C34.5849 24.8865 34.1486 25.453 33.5325 25.5336L3.26045 29.4782Z" fill="#0378F5"/>
</svg>
