<svg width="38" height="62" viewBox="0 0 38 62" fill="none" xmlns="http://www.w3.org/2000/svg">
<path d="M32.9824 0H4.15167C1.86232 0 0 1.86232 0 4.15167V57.8483C0 60.1377 1.86232 62 4.15167 62H32.9824C35.2718 62 37.1341 60.1377 37.1341 57.8483V4.15167C37.1341 1.86232 35.2718 0 32.9824 0ZM35.5841 57.8483C35.5841 59.2829 34.417 60.45 32.9824 60.45H4.15167C2.71637 60.45 1.55 59.2829 1.55 57.8483V4.15167C1.55 2.71715 2.71715 1.55 4.15167 1.55H32.9824C34.4177 1.55 35.5841 2.71715 35.5841 4.15167V57.8483Z" fill="#0378F5"/>
<path d="M32.7097 6.26575H4.4238C3.99523 6.26575 3.6488 6.61295 3.6488 7.04075V50.8135C3.6488 51.2413 3.99523 51.5885 4.4238 51.5885H32.7097C33.1383 51.5885 33.4847 51.2413 33.4847 50.8135V7.04075C33.4847 6.61295 33.1383 6.26575 32.7097 6.26575ZM31.9347 50.0385H5.1988V7.81575H31.9347V50.0385Z" fill="#0378F5"/>
<path d="M18.5667 53.1534C16.9198 53.1534 15.5798 54.4934 15.5798 56.1403C15.5798 57.7872 16.9198 59.1271 18.5667 59.1271C20.2136 59.1271 21.5528 57.7872 21.5528 56.1403C21.5528 54.4934 20.2136 53.1534 18.5667 53.1534ZM18.5667 57.5771C17.7739 57.5771 17.1298 56.9323 17.1298 56.1403C17.1298 55.3475 17.7739 54.7034 18.5667 54.7034C19.3587 54.7034 20.0028 55.3482 20.0028 56.1403C20.0036 56.9331 19.3595 57.5771 18.5667 57.5771Z" fill="#0378F5"/>
</svg>
