<svg width="62" height="62" viewBox="0 0 62 62" fill="none" xmlns="http://www.w3.org/2000/svg">
<path d="M39.2525 40.5889H8.80171C8.37328 40.5889 8.02698 40.9359 8.02698 41.3636C8.02698 41.7912 8.37328 42.1383 8.80171 42.1383H39.2525C39.6809 42.1383 40.0272 41.7912 40.0272 41.3636C40.0272 40.9352 39.6809 40.5889 39.2525 40.5889Z" fill="#0378F5"/>
<path d="M39.2525 48.577H8.80171C8.37328 48.577 8.02698 48.9241 8.02698 49.3518C8.02698 49.7794 8.37328 50.1265 8.80171 50.1265H39.2525C39.6809 50.1265 40.0272 49.7794 40.0272 49.3518C40.0272 48.9233 39.6809 48.577 39.2525 48.577Z" fill="#0378F5"/>
<path d="M39.2525 24.9919H8.80171C8.37328 24.9919 8.02698 25.339 8.02698 25.7667C8.02698 26.1943 8.37328 26.5414 8.80171 26.5414H39.2525C39.6809 26.5414 40.0272 26.1943 40.0272 25.7667C40.0272 25.339 39.6809 24.9919 39.2525 24.9919Z" fill="#0378F5"/>
<path d="M39.2525 32.9802H8.80171C8.37328 32.9802 8.02698 33.3273 8.02698 33.755C8.02698 34.1826 8.37328 34.5297 8.80171 34.5297H39.2525C39.6809 34.5297 40.0272 34.1826 40.0272 33.755C40.0272 33.3273 39.6809 32.9802 39.2525 32.9802Z" fill="#0378F5"/>
<path d="M39.2525 17.1936H8.80171C8.37328 17.1936 8.02698 17.5407 8.02698 17.9683C8.02698 18.396 8.37328 18.7431 8.80171 18.7431H39.2525C39.6809 18.7431 40.0272 18.396 40.0272 17.9683C40.0272 17.5407 39.6809 17.1936 39.2525 17.1936Z" fill="#0378F5"/>
<path d="M39.2525 9.39587H8.80171C8.37328 9.39587 8.02698 9.74295 8.02698 10.1706C8.02698 10.5983 8.37328 10.9453 8.80171 10.9453H39.2525C39.6809 10.9453 40.0272 10.5983 40.0272 10.1706C40.0272 9.74295 39.6809 9.39587 39.2525 9.39587Z" fill="#0378F5"/>
<path d="M61.1702 26.6956H48.3965L48.3849 0.778602C48.3849 0.350952 48.0378 0.00387299 47.6102 0.00387299L0.774729 0C0.568651 0 0.37262 0.081346 0.226971 0.226995C0.082097 0.372644 0 0.569426 0 0.774729V51.284C0 57.1928 4.80717 62 10.716 62L54.4038 61.9613C58.5625 61.9613 61.945 58.5772 61.945 54.4185V27.4703C61.945 27.0427 61.5987 26.6956 61.1702 26.6956ZM10.7153 60.4513C5.66171 60.4513 1.54946 56.3391 1.54946 51.2847V1.55023L46.8354 1.5541L46.8595 54.4193C46.8595 56.862 48.027 59.0374 49.8329 60.4165L10.7153 60.4513ZM60.3955 54.4193C60.3955 57.7243 57.7072 60.4126 54.403 60.4126C51.098 60.4126 48.4097 57.7235 48.4097 54.4193L48.3973 28.2458H60.3955V54.4193Z" fill="#0378F5"/>
</svg>
