<svg width="62" height="62" viewBox="0 0 62 62" fill="none" xmlns="http://www.w3.org/2000/svg">
<path d="M31 0C13.9066 0 0 13.9066 0 31C0 48.0934 13.9066 62 31 62C48.0934 62 62 48.0934 62 31C62 13.9066 48.0942 0 31 0ZM31 60.45C14.7614 60.45 1.55 47.2386 1.55 31C1.55 14.7614 14.7614 1.55 31 1.55C47.2386 1.55 60.45 14.7614 60.45 31C60.45 47.2386 47.2386 60.45 31 60.45Z" fill="#0378F5"/>
<path d="M31 4.75146C16.5268 4.75146 4.75146 16.5268 4.75146 30.9999C4.75146 45.4731 16.5268 57.2484 31 57.2484C45.4731 57.2484 57.2484 45.4731 57.2484 30.9999C57.2484 16.5268 45.4739 4.75146 31 4.75146ZM31 55.6984C17.3809 55.6984 6.30146 44.619 6.30146 30.9999C6.30146 17.3809 17.3809 6.30146 31 6.30146C44.619 6.30146 55.6984 17.3809 55.6984 30.9999C55.6984 44.619 44.619 55.6984 31 55.6984Z" fill="#0378F5"/>
<path d="M42.625 30.225H31.775V18.5962C31.775 18.1684 31.4278 17.8212 31 17.8212C30.5722 17.8212 30.225 18.1684 30.225 18.5962V31C30.225 31.4278 30.5722 31.775 31 31.775H42.625C43.0528 31.775 43.4 31.4278 43.4 31C43.4 30.5722 43.0536 30.225 42.625 30.225Z" fill="#0378F5"/>
<path d="M31 14.3188C31.4278 14.3188 31.775 13.9716 31.775 13.5438V10.0525C31.775 9.62467 31.4278 9.27747 31 9.27747C30.5722 9.27747 30.225 9.62467 30.225 10.0525V13.5438C30.225 13.9716 30.5722 14.3188 31 14.3188Z" fill="#0378F5"/>
<path d="M21.1978 12.4714C20.9831 12.1009 20.5104 11.973 20.1391 12.1877C19.7679 12.4016 19.6416 12.8759 19.8555 13.2464L21.6016 16.2696C21.7457 16.5184 22.0061 16.6571 22.2735 16.6571C22.4045 16.6571 22.5385 16.6238 22.6602 16.5533C23.0307 16.3394 23.1578 15.8651 22.9439 15.4946L21.1978 12.4714Z" fill="#0378F5"/>
<path d="M16.2704 21.6008L13.2471 19.8547C12.8751 19.64 12.4024 19.7679 12.1885 20.1383C11.9746 20.5088 12.1017 20.9831 12.4721 21.197L15.4954 22.9423C15.6178 23.0128 15.7511 23.0462 15.8821 23.0462C16.1503 23.0462 16.4107 22.9074 16.554 22.6587C16.7679 22.2882 16.6408 21.8147 16.2704 21.6008Z" fill="#0378F5"/>
<path d="M14.3188 31C14.3188 30.5722 13.9716 30.225 13.5438 30.225H10.0525C9.62467 30.225 9.27747 30.5722 9.27747 31C9.27747 31.4278 9.62467 31.775 10.0525 31.775H13.5438C13.9716 31.775 14.3188 31.4278 14.3188 31Z" fill="#0378F5"/>
<path d="M15.4953 39.0569L12.472 40.8022C12.1008 41.0161 11.9745 41.4904 12.1884 41.8608C12.3325 42.1096 12.5929 42.2483 12.8603 42.2483C12.9913 42.2483 13.1246 42.215 13.247 42.1445L16.2703 40.3984C16.6408 40.1845 16.7679 39.7102 16.554 39.3397C16.3393 38.9701 15.8658 38.8422 15.4953 39.0569Z" fill="#0378F5"/>
<path d="M22.6595 45.4468C22.2882 45.2329 21.8147 45.36 21.6008 45.7304L19.8547 48.7537C19.6408 49.1241 19.7679 49.5984 20.1384 49.8123C20.2608 49.8829 20.3933 49.9162 20.5251 49.9162C20.7932 49.9162 21.0536 49.7775 21.197 49.5287L22.9423 46.5054C23.157 46.1342 23.0307 45.6607 22.6595 45.4468Z" fill="#0378F5"/>
<path d="M31 47.681C30.5722 47.681 30.225 48.0282 30.225 48.456V51.9474C30.225 52.3752 30.5722 52.7224 31 52.7224C31.4278 52.7224 31.775 52.3752 31.775 51.9474V48.456C31.775 48.0282 31.4286 47.681 31 47.681Z" fill="#0378F5"/>
<path d="M40.3999 45.7304C40.186 45.36 39.7117 45.2329 39.3412 45.4468C38.9708 45.6607 38.8437 46.135 39.0576 46.5054L40.8029 49.5287C40.947 49.7775 41.2074 49.9162 41.4748 49.9162C41.6058 49.9162 41.7391 49.8829 41.8615 49.8123C42.2328 49.5984 42.3591 49.1241 42.1452 48.7537L40.3999 45.7304Z" fill="#0378F5"/>
<path d="M49.5294 40.8022L46.5061 39.0568C46.1341 38.8422 45.6614 38.97 45.4475 39.3405C45.2336 39.7109 45.3607 40.1852 45.7311 40.3991L48.7544 42.1452C48.8769 42.2158 49.0102 42.2491 49.1411 42.2491C49.4093 42.2491 49.6697 42.1104 49.8131 41.8616C50.027 41.4904 49.8999 41.0168 49.5294 40.8022Z" fill="#0378F5"/>
<path d="M51.9483 30.225H48.4569C48.0291 30.225 47.6819 30.5722 47.6819 31C47.6819 31.4278 48.0291 31.775 48.4569 31.775H51.9483C52.3761 31.775 52.7233 31.4278 52.7233 31C52.7233 30.5722 52.3761 30.225 51.9483 30.225Z" fill="#0378F5"/>
<path d="M46.1187 23.0469C46.2497 23.0469 46.383 23.0136 46.5054 22.9431L49.5287 21.1978C49.8999 20.9839 50.0262 20.5096 49.8123 20.1391C49.5977 19.7679 49.1241 19.6408 48.7537 19.8555L45.7304 21.6015C45.36 21.8154 45.2329 22.2898 45.4468 22.6602C45.5909 22.9082 45.8505 23.0469 46.1187 23.0469Z" fill="#0378F5"/>
<path d="M39.3413 16.5533C39.4637 16.6238 39.597 16.6572 39.728 16.6572C39.9962 16.6572 40.2566 16.5184 40.3999 16.2697L42.146 13.2464C42.3599 12.8759 42.2328 12.4016 41.8624 12.1877C41.4911 11.9738 41.0176 12.1009 40.8037 12.4714L39.0584 15.4947C38.843 15.8659 38.9701 16.3394 39.3413 16.5533Z" fill="#0378F5"/>
</svg>
