<svg width="80" height="80" viewBox="0 0 80 80" fill="none" xmlns="http://www.w3.org/2000/svg">
<path d="M79.7073 31.2423L48.7583 0.29325C48.3673 -0.09775 47.7353 -0.09775 47.3443 0.29325L6.28129 41.3562C5.89029 41.7472 5.89029 42.3792 6.28129 42.7702L37.2303 73.7192C37.2663 73.7552 37.3123 73.7703 37.3513 73.7993C37.4093 73.8423 37.4633 73.8882 37.5293 73.9172C37.5973 73.9472 37.6673 73.9582 37.7393 73.9732C37.7863 73.9832 37.8273 74.0073 37.8773 74.0103C37.8973 74.0113 37.9173 74.0122 37.9373 74.0122H37.9383C38.0703 74.0122 38.1963 73.9862 38.3123 73.9392C38.3203 73.9362 38.3263 73.9282 38.3343 73.9252C38.4453 73.8772 38.5453 73.8112 38.6313 73.7282C38.6353 73.7242 38.6403 73.7233 38.6443 73.7203L79.7073 32.6573C80.0983 32.2653 80.0983 31.6323 79.7073 31.2423ZM47.0303 3.43525L48.2963 35.7473C48.3653 37.5283 47.7103 39.2033 46.4503 40.4623C45.1903 41.7223 43.5103 42.3723 41.7313 42.3083L9.31129 41.1542L47.0303 3.43525ZM37.0723 70.7343L9.50028 43.1622L38.6743 44.2003L37.0723 70.7343ZM39.0933 70.4413L40.6743 44.2723C40.6743 44.2723 41.8713 44.3132 41.9793 44.3132C44.1763 44.3132 46.3063 43.4353 47.8643 41.8773C49.4993 40.2423 50.3853 37.9803 50.2943 35.6693L50.2563 34.6873L76.4253 33.1093L39.0933 70.4413ZM50.1783 32.6892L49.0303 3.39326L76.7253 31.0883L50.1783 32.6892Z" fill="#0378F5"/>
<path d="M17.2903 62.7102C16.8993 62.3192 16.2673 62.3192 15.8763 62.7102L0.29325 78.2933C-0.09775 78.6843 -0.09775 79.3163 0.29325 79.7073C0.48825 79.9023 0.744251 80.0002 1.00025 80.0002C1.25625 80.0002 1.51225 79.9023 1.70725 79.7073L17.2903 64.1242C17.6813 63.7332 17.6813 63.1002 17.2903 62.7102Z" fill="#0378F5"/>
<path d="M1.00025 65.0833C1.25625 65.0833 1.51225 64.9853 1.70725 64.7903L9.33225 57.1653C9.72325 56.7743 9.72325 56.1423 9.33225 55.7513C8.94125 55.3603 8.30925 55.3603 7.91825 55.7513L0.29325 63.3763C-0.09775 63.7673 -0.09775 64.3993 0.29325 64.7903C0.48825 64.9863 0.744251 65.0833 1.00025 65.0833Z" fill="#0378F5"/>
<path d="M22.7813 70.6143L15.1563 78.2393C14.7653 78.6303 14.7653 79.2623 15.1563 79.6533C15.3513 79.8483 15.6073 79.9463 15.8633 79.9463C16.1193 79.9463 16.3753 79.8483 16.5703 79.6533L24.1953 72.0283C24.5863 71.6373 24.5863 71.0053 24.1953 70.6143C23.8043 70.2243 23.1713 70.2243 22.7813 70.6143Z" fill="#0378F5"/>
</svg>
